<!DOCTYPE svg PUBLIC "-//W3C//DTD SVG 1.1//EN" "https://www.w3.org/Graphics/SVG/1.1/DTD/svg11.dtd"><svg xmlns="http://www.w3.org/2000/svg" id="sfn-svg" class="sfn-workflow-graph" width="514" height="675">
    
    
<g transform="translate(12,19.61328125)"><g class="nodes"><g class="node-container" transform="translate(244.8046875,18.25)"><g class="node anchor"><circle class="shape" x="-15.86328125" y="-8.25" r="25.86328125"/><text class="label"><tspan xml:space="preserve" text-anchor="middle" alignment-baseline="central">Start</tspan></text></g></g><g class="node-container" transform="translate(244.8046875,620.25)"><g class="node anchor"><circle class="shape" x="-12.17578125" y="-8.25" r="22.17578125"/><text class="label"><tspan xml:space="preserve" text-anchor="middle" alignment-baseline="central">End</tspan></text></g></g><g class="node-container" transform="translate(244.8046875,79.75)"><g class="node state Task NotYetStarted"><rect class="shape" rx="5" ry="5" x="-66.765625" y="-18.25" width="133.53125" height="36.5"/><text class="label"><tspan xml:space="preserve" text-anchor="middle" alignment-baseline="central">Parse Participants</tspan></text></g></g><g class="node-container" transform="translate(244.8046875,141.25)"><g class="node state Task NotYetStarted"><rect class="shape" rx="5" ry="5" x="-75.515625" y="-18.25" width="151.03125" height="36.5"/><text class="label"><tspan xml:space="preserve" text-anchor="middle" alignment-baseline="central">Validate Participants</tspan></text></g></g><g class="node-container" transform="translate(244.8046875,202.75)"><g class="node state Task NotYetStarted"><rect class="shape" rx="5" ry="5" x="-35.84765625" y="-18.25" width="71.6953125" height="36.5"/><text class="label"><tspan xml:space="preserve" text-anchor="middle" alignment-baseline="central">Allocate</tspan></text></g></g><g class="node-container" transform="translate(244.8046875,264.25)"><g class="node state Task NotYetStarted"><rect class="shape" rx="5" ry="5" x="-72.8671875" y="-18.25" width="145.734375" height="36.5"/><text class="label"><tspan xml:space="preserve" text-anchor="middle" alignment-baseline="central">Validate Allocations</tspan></text></g></g><g class="node-container" transform="translate(244.8046875,325.75)"><g class="node state Task NotYetStarted"><rect class="shape" rx="5" ry="5" x="-63.9375" y="-18.25" width="127.875" height="36.5"/><text class="label"><tspan xml:space="preserve" text-anchor="middle" alignment-baseline="central">Store Allocations</tspan></text></g></g><g class="node-container" transform="translate(244.8046875,473)"><g class="node state Parallel NotYetStarted Container" transform="translate(-244.8046875,-104)"><rect class="shape" rx="41.6" ry="41.6" x="0" y="0" width="489.609375" height="208"/><g class="branches" transform="translate(20,40)"><g class="branch" transform="translate(0,0)"><g class="nodes"><g class="node-container" transform="translate(113.6875,69)"><g class="node state Map NotYetStarted Container" transform="translate(-106.1875,-69)"><rect class="shape" rx="5" ry="5" x="-10" y="-10" width="210.375" height="136"/><rect class="shape" rx="5" ry="5" x="-5" y="-5" width="211.375" height="137"/><rect class="shape" rx="5" ry="5" x="0" y="0" width="212.375" height="138"/><g class="branches" transform="translate(20,20)"><g class="branch" transform="translate(0,0)"><g class="nodes"><g class="node-container" transform="translate(91.6328125,18.25)"><g class="node state Choice NotYetStarted"><rect class="shape" rx="5" ry="5" x="-54.80078125" y="-18.25" width="109.6015625" height="36.5"/><text class="label"><tspan xml:space="preserve" text-anchor="middle" alignment-baseline="central">Should Email?</tspan></text></g></g><g class="node-container" transform="translate(38.5390625,79.75)"><g class="node state Pass NotYetStarted"><rect class="shape" rx="5" ry="5" x="-38.5390625" y="-18.25" width="77.078125" height="36.5"/><text class="label"><tspan xml:space="preserve" text-anchor="middle" alignment-baseline="central">No Email</tspan></text></g></g><g class="node-container" transform="translate(144.7265625,79.75)"><g class="node state Task NotYetStarted"><rect class="shape" rx="5" ry="5" x="-27.6484375" y="-18.25" width="55.296875" height="36.5"/><text class="label"><tspan xml:space="preserve" text-anchor="middle" alignment-baseline="central">Email</tspan></text></g></g></g><g class="edges"><g class="edge"><path class="path" marker-end="url(#arrowhead17)" d="M60.12188770325203,36.5L56.52475016937669,38.58333333333333C52.92761263550135,40.666666666666664,45.733337567750674,44.83333333333333,42.13620003387534,49C38.5390625,53.166666666666664,38.5390625,57.33333333333333,38.5390625,59.416666666666664L38.5390625,61.5" style="fill: none;"/><defs><marker id="arrowhead17" viewBox="0 0 10 10" refX="9" refY="5" markerUnits="strokeWidth" markerWidth="8" markerHeight="6" orient="auto"><path d="M 0 0 L 10 5 L 0 10 z"/></marker></defs></g><g class="edge"><path class="path" marker-end="url(#arrowhead18)" d="M123.14373729674797,36.5L126.7408748306233,38.58333333333333C130.33801236449864,40.666666666666664,137.53228743224932,44.83333333333333,141.12942496612465,49C144.7265625,53.166666666666664,144.7265625,57.33333333333333,144.7265625,59.416666666666664L144.7265625,61.5" style="fill: none;"/><defs><marker id="arrowhead18" viewBox="0 0 10 10" refX="9" refY="5" markerUnits="strokeWidth" markerWidth="8" markerHeight="6" orient="auto"><path d="M 0 0 L 10 5 L 0 10 z"/></marker></defs></g></g></g></g><path class="path" marker-end="url(#arrowhead19)" d="M106.1875,0L106.18749999999997,1.6666666666666665C106.18749999999999,3.333333333333333,106.18749999999999,6.666666666666666,107.09505208333331,8.333333333333332C108.00260416666666,10,109.81770833333333,10,110.72526041666666,11.666666666666664C111.6328125,13.333333333333332,111.6328125,16.666666666666664,111.6328125,18.333333333333332L111.6328125,20" style="fill: none;"/></g></g></g><g class="edges"/></g><g class="branch" transform="translate(242.375,0)"><g class="nodes"><g class="node-container" transform="translate(106.1171875,69)"><g class="node state Map NotYetStarted Container" transform="translate(-98.6171875,-69)"><rect class="shape" rx="5" ry="5" x="-10" y="-10" width="195.234375" height="136"/><rect class="shape" rx="5" ry="5" x="-5" y="-5" width="196.234375" height="137"/><rect class="shape" rx="5" ry="5" x="0" y="0" width="197.234375" height="138"/><g class="branches" transform="translate(20,20)"><g class="branch" transform="translate(0,0)"><g class="nodes"><g class="node-container" transform="translate(84.0625,18.25)"><g class="node state Choice NotYetStarted"><rect class="shape" rx="5" ry="5" x="-51.015625" y="-18.25" width="102.03125" height="36.5"/><text class="label"><tspan xml:space="preserve" text-anchor="middle" alignment-baseline="central">Should SMS?</tspan></text></g></g><g class="node-container" transform="translate(34.75390625,79.75)"><g class="node state Pass NotYetStarted"><rect class="shape" rx="5" ry="5" x="-34.75390625" y="-18.25" width="69.5078125" height="36.5"/><text class="label"><tspan xml:space="preserve" text-anchor="middle" alignment-baseline="central">No SMS</tspan></text></g></g><g class="node-container" transform="translate(133.37109375,79.75)"><g class="node state Task NotYetStarted"><rect class="shape" rx="5" ry="5" x="-23.86328125" y="-18.25" width="47.7265625" height="36.5"/><text class="label"><tspan xml:space="preserve" text-anchor="middle" alignment-baseline="central">SMS</tspan></text></g></g></g><g class="edges"><g class="edge"><path class="path" marker-end="url(#arrowhead20)" d="M54.798050050813,36.5L51.45735941734417,38.58333333333333C48.11666878387533,40.666666666666664,41.43528751693766,44.83333333333333,38.09459688346883,49C34.75390625,53.166666666666664,34.75390625,57.33333333333333,34.75390625,59.416666666666664L34.75390625,61.5" style="fill: none;"/><defs><marker id="arrowhead20" viewBox="0 0 10 10" refX="9" refY="5" markerUnits="strokeWidth" markerWidth="8" markerHeight="6" orient="auto"><path d="M 0 0 L 10 5 L 0 10 z"/></marker></defs></g><g class="edge"><path class="path" marker-end="url(#arrowhead21)" d="M113.326949949187,36.5L116.66764058265582,38.58333333333333C120.00833121612466,40.666666666666664,126.68971248306232,44.83333333333333,130.03040311653115,49C133.37109375,53.166666666666664,133.37109375,57.33333333333333,133.37109375,59.416666666666664L133.37109375,61.5" style="fill: none;"/><defs><marker id="arrowhead21" viewBox="0 0 10 10" refX="9" refY="5" markerUnits="strokeWidth" markerWidth="8" markerHeight="6" orient="auto"><path d="M 0 0 L 10 5 L 0 10 z"/></marker></defs></g></g></g></g><path class="path" marker-end="url(#arrowhead22)" d="M98.6171875,0L98.61718749999997,1.6666666666666665C98.61718749999999,3.333333333333333,98.61718749999999,6.666666666666666,99.52473958333331,8.333333333333332C100.43229166666666,10,102.24739583333333,10,103.15494791666666,11.666666666666664C104.0625,13.333333333333332,104.0625,16.666666666666664,104.0625,18.333333333333332L104.0625,20" style="fill: none;"/></g></g></g><g class="edges"/></g></g><path class="path" marker-end="url(#arrowhead23)" d="M244.8046875,0L244.8046875,3.333333333333333C244.8046875,6.666666666666666,244.8046875,13.333333333333332,226.28515625,16.666666666666664C207.765625,20,170.7265625,20,152.20703125,23.33333333333333C133.6875,26.666666666666664,133.6875,33.33333333333333,133.6875,36.666666666666664L133.6875,40" style="fill: none;"/><path class="path" marker-end="url(#arrowhead24)" d="M244.8046875,0L244.8046875,3.333333333333333C244.8046875,6.666666666666666,244.8046875,13.333333333333332,265.4192708333333,16.666666666666664C286.03385416666663,20,327.2630208333333,20,347.87760416666663,23.33333333333333C368.4921875,26.666666666666664,368.4921875,33.33333333333333,368.49218749999994,36.666666666666664L368.4921875,40" style="fill: none;"/></g></g></g><g class="edges"><g class="edge"><path class="path" marker-end="url(#arrowhead25)" d="M244.8046875,98L244.8046875,100.08333333333331C244.8046875,102.16666666666666,244.8046875,106.33333333333331,244.8046875,110.49999999999999C244.8046875,114.66666666666666,244.8046875,118.83333333333333,244.8046875,120.91666666666666L244.8046875,123" style="fill: none;"/><defs><marker id="arrowhead25" viewBox="0 0 10 10" refX="9" refY="5" markerUnits="strokeWidth" markerWidth="8" markerHeight="6" orient="auto"><path d="M 0 0 L 10 5 L 0 10 z"/></marker></defs></g><g class="edge"><path class="path" marker-end="url(#arrowhead26)" d="M244.8046875,44.11328125L244.8046875,44.92773437499999C244.8046875,45.7421875,244.8046875,47.37109375,244.8046875,50.26888020833333C244.8046875,53.166666666666664,244.8046875,57.33333333333333,244.8046875,59.416666666666664L244.8046875,61.5" style="fill: none;"/><defs><marker id="arrowhead26" viewBox="0 0 10 10" refX="9" refY="5" markerUnits="strokeWidth" markerWidth="8" markerHeight="6" orient="auto"><path d="M 0 0 L 10 5 L 0 10 z"/></marker></defs></g><g class="edge"><path class="path" marker-end="url(#arrowhead27)" d="M244.8046875,159.5L244.8046875,161.58333333333331C244.8046875,163.66666666666666,244.8046875,167.83333333333331,244.8046875,172C244.8046875,176.16666666666666,244.8046875,180.33333333333331,244.8046875,182.41666666666666L244.8046875,184.5" style="fill: none;"/><defs><marker id="arrowhead27" viewBox="0 0 10 10" refX="9" refY="5" markerUnits="strokeWidth" markerWidth="8" markerHeight="6" orient="auto"><path d="M 0 0 L 10 5 L 0 10 z"/></marker></defs></g><g class="edge"><path class="path" marker-end="url(#arrowhead28)" d="M235.90224847560975,221L234.8859883130081,223.0833333333333C233.8697281504065,225.16666666666663,231.83720782520325,229.33333333333331,231.83720782520322,233.5C231.83720782520325,237.66666666666666,233.8697281504065,241.83333333333331,234.8859883130081,243.91666666666666L235.90224847560975,246" style="fill: none;"/><defs><marker id="arrowhead28" viewBox="0 0 10 10" refX="9" refY="5" markerUnits="strokeWidth" markerWidth="8" markerHeight="6" orient="auto"><path d="M 0 0 L 10 5 L 0 10 z"/></marker></defs></g><g class="edge"><path class="path" marker-end="url(#arrowhead29)" d="M244.8046875,282.5L244.8046875,284.5833333333333C244.8046875,286.66666666666663,244.8046875,290.8333333333333,244.8046875,295C244.8046875,299.16666666666663,244.8046875,303.3333333333333,244.8046875,305.41666666666663L244.8046875,307.5" style="fill: none;"/><defs><marker id="arrowhead29" viewBox="0 0 10 10" refX="9" refY="5" markerUnits="strokeWidth" markerWidth="8" markerHeight="6" orient="auto"><path d="M 0 0 L 10 5 L 0 10 z"/></marker></defs></g><g class="edge"><path class="path" marker-end="url(#arrowhead30)" d="M253.70712652439025,246L254.7233866869919,243.91666666666666C255.7396468495935,241.83333333333331,257.7721671747968,237.66666666666666,257.7721671747968,233.5C257.7721671747968,229.33333333333331,255.7396468495935,225.16666666666663,254.7233866869919,223.08333333333331L253.70712652439025,221" style="fill: none;"/><defs><marker id="arrowhead30" viewBox="0 0 10 10" refX="9" refY="5" markerUnits="strokeWidth" markerWidth="8" markerHeight="6" orient="auto"><path d="M 0 0 L 10 5 L 0 10 z"/></marker></defs></g><g class="edge"><path class="path" marker-end="url(#arrowhead31)" d="M244.8046875,344L244.8046875,346.0833333333333C244.8046875,348.16666666666663,244.8046875,352.3333333333333,244.8046875,356.5C244.8046875,360.66666666666663,244.8046875,364.8333333333333,244.8046875,366.9166666666667L244.8046875,369" style="fill: none;"/><defs><marker id="arrowhead31" viewBox="0 0 10 10" refX="9" refY="5" markerUnits="strokeWidth" markerWidth="8" markerHeight="6" orient="auto"><path d="M 0 0 L 10 5 L 0 10 z"/></marker></defs></g><g class="edge"><path class="path" marker-end="url(#arrowhead32)" d="M244.8046875,577L244.8046875,579.0833333333333C244.8046875,581.1666666666666,244.8046875,585.3333333333333,244.8046875,588.845703125C244.8046875,592.3580729166666,244.8046875,595.2161458333333,244.8046875,596.6451822916666L244.8046875,598.07421875" style="fill: none;"/><defs><marker id="arrowhead32" viewBox="0 0 10 10" refX="9" refY="5" markerUnits="strokeWidth" markerWidth="8" markerHeight="6" orient="auto"><path d="M 0 0 L 10 5 L 0 10 z"/></marker></defs></g></g></g><style xmlns="http://www.w3.org/1999/xhtml">.node &gt; .shape {stroke: #555555;stroke-width: 0.6px;fill: #FFFFFF;} path {stroke: #555;background-color: #555;stroke-width: 1px;} .node.state.NotYetStarted &gt; .shape,.node.state.Container &gt; .shape {stroke-dasharray: 5 2;} .node.state.Failed &gt; .shape,rect.legend.Failed {fill: #DE322F;} .node.state.CaughtError &gt; .shape,rect.legend.CaughtError {fill: #FFA500;} .node.state.Succeeded &gt; .shape,rect.legend.Succeeded {fill: #2BD62E;} .node.state.InProgress &gt; .shape,rect.legend.InProgress {fill: #53c9ed;} .node.state.Cancelled &gt; .shape,rect.legend.Cancelled {fill: #dddddd;} .node.anchor &gt; .shape {fill: #FFDA75;} .node.state.hovered:not(.selected):not(.NotYetStarted) &gt; .shape,.node.selected &gt; .shape {stroke: #555555;stroke-width: 2px;} .node.state.Container.Failed &gt; .shape {fill: #EE9592;} .node.state.Container.CaughtError &gt; .shape {fill: #FFD27F;} .node.state.Container.Succeeded &gt; .shape {fill: #91EA9A;} .node.state.Container.InProgress &gt; .shape {fill :#A9E4F7;} .node.state.Container.Cancelled &gt; .shape {fill: #EEEEEE;} marker {fill: #555555;} .node.anchor,.node.state.NotYetStarted {cursor: default;} .node.state {cursor: pointer;} tspan .label {font-weight: normal;font-size: 12px;text-shadow: none;} </style></svg>